<?xml version="1.0"?>
<svg version="1.1" xmlns="http://www.w3.org/2000/svg" width="400" height="200" style=""><path fill="#fd5e19" d="M54.278,142.312c0,1.476-0.738,1.968-1.968,1.968l-29.192,0c-1.476,0-2.132-0.492-2.132-2.296l0-52.398c0-1.312,0.656-2.05,1.968-2.05l6.56,0c1.476,0,2.05,0.574,2.05,2.132l0,45.838l20.746,0c1.394,0,1.968,0.656,1.968,1.886l0,4.92z M100.239,124.272c0,1.968-0.656,2.378-2.706,2.378l-24.026,0c0.656,6.314,5.248,10.66,11.726,10.66c3.444,0,7.052-0.82,10.086-1.968c0.328-0.082,0.574-0.246,0.902-0.246c0.574,0,0.984,0.328,1.148,0.984l1.148,4.182c0.082,0.41,0.164,0.738,0.164,0.984c0,0.574-0.328,0.984-1.312,1.394c-4.018,1.804-9.512,2.624-13.776,2.624c-12.874,0-20.5-8.2-20.5-20.992c0-12.3,8.118-20.828,20.336-20.828c5.002,0,9.102,1.886,11.972,4.92c3.772,3.936,4.838,9.102,4.838,14.678l0,1.23z M90.481,120.172l0-0.902c-0.164-4.264-2.624-8.2-7.626-8.2c-5.33,0-8.528,4.264-9.184,9.102l16.81,0z M137.344,141.82c0,0.82-0.41,1.23-1.23,1.558c-2.542,1.066-5.904,1.886-9.184,1.886c-4.182,0-7.79-1.066-9.84-3.444c-2.542-2.87-2.624-6.232-2.624-12.218l0-18.286l-3.854,0c-1.558,0-1.804-0.328-1.804-2.05l0-3.116c0-0.984,0.492-1.64,1.476-1.64l4.182,0l0-8.938c0-1.394,0.738-1.804,2.05-1.968l5.904-0.738l0.41,0c1.066,0,1.558,0.574,1.558,1.804l0,9.84l9.266,0c0.984,0,1.558,0.328,1.558,1.394l0,3.854c0,0.984-0.656,1.558-1.64,1.558l-9.184,0l0,18.778c0,2.46,0.164,4.264,1.066,5.576c0.738,1.066,1.886,1.722,3.854,1.722c2.05,0,3.772-0.492,5.248-0.984c0.328-0.082,0.574-0.164,0.82-0.164c0.574,0,0.902,0.328,1.066,0.984l0.82,4.1c0.082,0.246,0.082,0.328,0.082,0.492z M175.105,132.554c0,8.61-7.462,12.71-15.826,12.71c-4.264,0-8.938-1.23-12.628-2.87c-0.738-0.328-0.984-0.82-0.984-1.312c0-0.246,0.082-0.492,0.164-0.738l1.312-4.182c0.246-0.82,0.656-1.148,1.148-1.148c0.246,0,0.492,0,0.902,0.164c3.608,1.476,7.462,2.542,10.332,2.542c3.608,0,6.068-1.64,6.068-4.346c0-2.296-1.558-3.526-4.92-4.838l-6.478-2.46c-4.674-1.722-8.446-5.33-8.446-10.906c0-8.036,7.544-11.726,14.842-11.726c3.936,0,7.79,0.656,11.89,2.46c0.656,0.328,0.984,0.656,0.984,1.148c0,0.246-0.082,0.492-0.164,0.82l-1.394,4.428c-0.164,0.574-0.574,0.902-1.148,0.902c-0.246,0-0.574-0.082-0.82-0.164c-2.706-1.066-6.232-1.968-8.856-1.968c-3.444,0-5.166,1.886-5.166,3.772c0,1.804,0.902,2.952,4.018,4.182l7.38,3.034c4.346,1.804,7.79,5.166,7.79,10.496z M229.02,140.262c0,0.738-0.328,1.23-1.312,1.64c-5.412,2.214-10.332,3.362-16.318,3.362c-17.302,0-25.748-12.218-25.748-29.11c0-16.81,10.086-29.684,26.568-29.684c5.658,0,10.742,1.148,15.416,3.444c0.984,0.492,1.312,0.902,1.312,1.394c0,0.328-0.082,0.656-0.246,1.066l-1.886,5.166c-0.246,0.738-0.656,1.066-1.148,1.066c-0.246,0-0.574-0.164-0.902-0.328c-4.1-2.132-7.79-2.952-11.89-2.952c-11.398,0-15.826,10.496-15.826,20.418c0,12.628,5.904,20.664,15.99,20.664c3.936,0,7.954-0.902,11.808-2.624c0.41-0.164,0.738-0.328,0.984-0.328c0.574,0,0.984,0.41,1.312,1.23l1.64,4.428c0.164,0.41,0.246,0.82,0.246,1.148z M276.785,142.64c0,1.23-0.246,1.64-1.312,1.64l-7.216,0c-1.148,0-1.394-0.328-1.394-1.64l0-22.796c0-4.428-1.23-7.708-6.15-7.708c-3.198,0-7.298,1.722-9.84,3.936l0,26.568c0,1.23-0.328,1.64-1.558,1.64l-7.052,0c-0.984,0-1.312-0.41-1.312-1.476l0-54.202c0-1.476,0.656-1.886,1.804-2.05l5.658-0.738c0.328-0.082,0.738-0.082,1.066-0.082c0.902,0,1.394,0.41,1.394,1.558l0,20.582c3.444-2.87,8.61-4.428,12.956-4.428c9.184,0,12.956,5.822,12.956,14.678l0,24.518z M330.618,142.722c0,0.984-0.656,1.558-1.64,1.558l-3.936,0c-4.264,0-6.15-2.05-6.724-4.838l-0.164,0c-2.05,3.034-7.38,5.822-11.89,5.822c-11.562,0-16.81-9.512-16.81-20.172c0-14.186,8.528-21.648,17.712-21.648c4.346,0,8.446,1.968,10.496,4.756l0.164-2.214c0.082-0.902,0.738-1.476,1.722-1.476l5.74,0c1.066,0,1.722,0.574,1.722,1.804l0,28.454c0,1.148,0.164,1.968,0.492,2.378c0.246,0.246,0.574,0.328,0.984,0.328l0.656,0c0.984,0,1.476,0.328,1.476,1.394l0,3.854z M317.088,131.57l0-15.826c-1.64-2.378-5.002-4.182-8.118-4.182c-5.002,0-9.266,4.264-9.266,12.874c0,6.888,2.624,12.71,8.692,12.71c4.018,0,7.462-3.034,8.692-5.576z M367.395,141.82c0,0.82-0.41,1.23-1.23,1.558c-2.542,1.066-5.904,1.886-9.184,1.886c-4.182,0-7.79-1.066-9.84-3.444c-2.542-2.87-2.624-6.232-2.624-12.218l0-18.286l-3.854,0c-1.558,0-1.804-0.328-1.804-2.05l0-3.116c0-0.984,0.492-1.64,1.476-1.64l4.182,0l0-8.938c0-1.394,0.738-1.804,2.05-1.968l5.904-0.738l0.41,0c1.066,0,1.558,0.574,1.558,1.804l0,9.84l9.266,0c0.984,0,1.558,0.328,1.558,1.394l0,3.854c0,0.984-0.656,1.558-1.64,1.558l-9.184,0l0,18.778c0,2.46,0.164,4.264,1.066,5.576c0.738,1.066,1.886,1.722,3.854,1.722c2.05,0,3.772-0.492,5.248-0.984c0.328-0.082,0.574-0.164,0.82-0.164c0.574,0,0.902,0.328,1.066,0.984l0.82,4.1c0.082,0.246,0.082,0.328,0.082,0.492z"/><path fill="#" d=""/></svg>
