<?xml version="1.0" encoding="UTF-8"?>
<svg xmlns="http://www.w3.org/2000/svg" xmlns:xlink="http://www.w3.org/1999/xlink" width="120px" height="60px" viewBox="0 0 120 60" version="1.1">
<g id="surface1">
<path style=" stroke:none;fill-rule:nonzero;fill:rgb(99.215686%,36.862745%,9.803922%);fill-opacity:1;" d="M 16.285156 42.695312 C 16.285156 43.136719 16.0625 43.285156 15.691406 43.285156 L 6.933594 43.285156 C 6.492188 43.285156 6.296875 43.136719 6.296875 42.59375 L 6.296875 26.875 C 6.296875 26.480469 6.492188 26.261719 6.886719 26.261719 L 8.855469 26.261719 C 9.296875 26.261719 9.46875 26.433594 9.46875 26.902344 L 9.46875 40.652344 L 15.691406 40.652344 C 16.109375 40.652344 16.285156 40.847656 16.285156 41.21875 Z M 30.070312 37.28125 C 30.070312 37.871094 29.875 37.996094 29.261719 37.996094 L 22.050781 37.996094 C 22.25 39.890625 23.625 41.191406 25.570312 41.191406 C 26.601562 41.191406 27.683594 40.945312 28.59375 40.601562 C 28.695312 40.578125 28.769531 40.527344 28.867188 40.527344 C 29.039062 40.527344 29.160156 40.628906 29.210938 40.824219 L 29.554688 42.078125 C 29.578125 42.203125 29.605469 42.300781 29.605469 42.375 C 29.605469 42.546875 29.507812 42.667969 29.210938 42.792969 C 28.003906 43.332031 26.355469 43.578125 25.078125 43.578125 C 21.214844 43.578125 18.929688 41.121094 18.929688 37.28125 C 18.929688 33.589844 21.363281 31.03125 25.027344 31.03125 C 26.53125 31.03125 27.757812 31.597656 28.621094 32.507812 C 29.75 33.691406 30.070312 35.238281 30.070312 36.914062 Z M 27.144531 36.050781 L 27.144531 35.78125 C 27.09375 34.5 26.355469 33.320312 24.855469 33.320312 C 23.257812 33.320312 22.296875 34.601562 22.101562 36.050781 Z M 41.203125 42.546875 C 41.203125 42.792969 41.082031 42.914062 40.835938 43.011719 C 40.070312 43.332031 39.0625 43.578125 38.078125 43.578125 C 36.824219 43.578125 35.742188 43.257812 35.128906 42.546875 C 34.363281 41.683594 34.339844 40.675781 34.339844 38.878906 L 34.339844 33.394531 L 33.183594 33.394531 C 32.714844 33.394531 32.640625 33.296875 32.640625 32.78125 L 32.640625 31.84375 C 32.640625 31.550781 32.789062 31.351562 33.085938 31.351562 L 34.339844 31.351562 L 34.339844 28.671875 C 34.339844 28.253906 34.5625 28.128906 34.953125 28.082031 L 36.726562 27.859375 L 36.847656 27.859375 C 37.167969 27.859375 37.316406 28.03125 37.316406 28.402344 L 37.316406 31.351562 L 40.097656 31.351562 C 40.390625 31.351562 40.5625 31.453125 40.5625 31.769531 L 40.5625 32.925781 C 40.5625 33.222656 40.367188 33.394531 40.070312 33.394531 L 37.316406 33.394531 L 37.316406 39.027344 C 37.316406 39.765625 37.367188 40.308594 37.636719 40.699219 C 37.859375 41.019531 38.203125 41.21875 38.792969 41.21875 C 39.40625 41.21875 39.925781 41.070312 40.367188 40.921875 C 40.464844 40.898438 40.539062 40.875 40.613281 40.875 C 40.785156 40.875 40.882812 40.972656 40.933594 41.167969 L 41.179688 42.398438 C 41.203125 42.472656 41.203125 42.496094 41.203125 42.546875 Z M 52.53125 39.765625 C 52.53125 42.347656 50.292969 43.578125 47.785156 43.578125 C 46.503906 43.578125 45.101562 43.210938 43.996094 42.71875 C 43.773438 42.621094 43.699219 42.472656 43.699219 42.324219 C 43.699219 42.25 43.726562 42.175781 43.75 42.101562 L 44.144531 40.847656 C 44.214844 40.601562 44.339844 40.503906 44.488281 40.503906 C 44.5625 40.503906 44.636719 40.503906 44.757812 40.554688 C 45.839844 40.996094 46.996094 41.316406 47.859375 41.316406 C 48.941406 41.316406 49.679688 40.824219 49.679688 40.011719 C 49.679688 39.324219 49.210938 38.953125 48.203125 38.5625 L 46.257812 37.824219 C 44.855469 37.304688 43.726562 36.222656 43.726562 34.550781 C 43.726562 32.140625 45.988281 31.03125 48.175781 31.03125 C 49.359375 31.03125 50.515625 31.230469 51.746094 31.769531 C 51.941406 31.871094 52.039062 31.96875 52.039062 32.117188 C 52.039062 32.1875 52.015625 32.261719 51.992188 32.363281 L 51.570312 33.691406 C 51.523438 33.863281 51.398438 33.960938 51.226562 33.960938 C 51.152344 33.960938 51.054688 33.9375 50.980469 33.910156 C 50.167969 33.589844 49.113281 33.320312 48.324219 33.320312 C 47.292969 33.320312 46.773438 33.886719 46.773438 34.453125 C 46.773438 34.992188 47.046875 35.339844 47.980469 35.707031 L 50.195312 36.617188 C 51.5 37.160156 52.53125 38.167969 52.53125 39.765625 Z M 68.707031 42.078125 C 68.707031 42.300781 68.609375 42.449219 68.3125 42.570312 C 66.6875 43.234375 65.210938 43.578125 63.417969 43.578125 C 58.226562 43.578125 55.691406 39.914062 55.691406 34.847656 C 55.691406 29.804688 58.71875 25.941406 63.664062 25.941406 C 65.359375 25.941406 66.886719 26.285156 68.289062 26.972656 C 68.582031 27.121094 68.679688 27.246094 68.679688 27.390625 C 68.679688 27.492188 68.65625 27.589844 68.609375 27.710938 L 68.042969 29.261719 C 67.96875 29.484375 67.84375 29.582031 67.699219 29.582031 C 67.625 29.582031 67.523438 29.53125 67.425781 29.484375 C 66.195312 28.84375 65.089844 28.597656 63.859375 28.597656 C 60.441406 28.597656 59.113281 31.746094 59.113281 34.722656 C 59.113281 38.511719 60.882812 40.921875 63.910156 40.921875 C 65.089844 40.921875 66.296875 40.652344 67.453125 40.136719 C 67.574219 40.085938 67.671875 40.035156 67.746094 40.035156 C 67.917969 40.035156 68.042969 40.160156 68.140625 40.40625 L 68.632812 41.734375 C 68.679688 41.855469 68.707031 41.980469 68.707031 42.078125 Z M 83.035156 42.792969 C 83.035156 43.160156 82.960938 43.285156 82.640625 43.285156 L 80.476562 43.285156 C 80.132812 43.285156 80.058594 43.1875 80.058594 42.792969 L 80.058594 35.953125 C 80.058594 34.625 79.691406 33.640625 78.214844 33.640625 C 77.253906 33.640625 76.023438 34.15625 75.261719 34.820312 L 75.261719 42.792969 C 75.261719 43.160156 75.164062 43.285156 74.792969 43.285156 L 72.679688 43.285156 C 72.382812 43.285156 72.285156 43.160156 72.285156 42.839844 L 72.285156 26.582031 C 72.285156 26.136719 72.480469 26.015625 72.828125 25.964844 L 74.523438 25.746094 C 74.621094 25.71875 74.746094 25.71875 74.84375 25.71875 C 75.113281 25.71875 75.261719 25.84375 75.261719 26.1875 L 75.261719 32.363281 C 76.296875 31.5 77.84375 31.03125 79.148438 31.03125 C 81.902344 31.03125 83.035156 32.78125 83.035156 35.4375 Z M 99.183594 42.816406 C 99.183594 43.113281 98.988281 43.285156 98.695312 43.285156 L 97.511719 43.285156 C 96.234375 43.285156 95.667969 42.667969 95.496094 41.832031 L 95.445312 41.832031 C 94.832031 42.742188 93.230469 43.578125 91.878906 43.578125 C 88.410156 43.578125 86.835938 40.726562 86.835938 37.527344 C 86.835938 33.273438 89.394531 31.03125 92.148438 31.03125 C 93.453125 31.03125 94.683594 31.625 95.296875 32.460938 L 95.347656 31.796875 C 95.371094 31.523438 95.570312 31.351562 95.863281 31.351562 L 97.585938 31.351562 C 97.90625 31.351562 98.101562 31.523438 98.101562 31.894531 L 98.101562 40.429688 C 98.101562 40.773438 98.152344 41.019531 98.25 41.144531 C 98.324219 41.21875 98.421875 41.242188 98.546875 41.242188 L 98.742188 41.242188 C 99.039062 41.242188 99.183594 41.339844 99.183594 41.660156 Z M 95.125 39.472656 L 95.125 34.722656 C 94.632812 34.011719 93.625 33.46875 92.691406 33.46875 C 91.191406 33.46875 89.910156 34.746094 89.910156 37.332031 C 89.910156 39.398438 90.699219 41.144531 92.519531 41.144531 C 93.722656 41.144531 94.757812 40.234375 95.125 39.472656 Z M 110.21875 42.546875 C 110.21875 42.792969 110.09375 42.914062 109.847656 43.011719 C 109.085938 43.332031 108.078125 43.578125 107.09375 43.578125 C 105.839844 43.578125 104.757812 43.257812 104.140625 42.546875 C 103.378906 41.683594 103.355469 40.675781 103.355469 38.878906 L 103.355469 33.394531 L 102.199219 33.394531 C 101.730469 33.394531 101.65625 33.296875 101.65625 32.78125 L 101.65625 31.84375 C 101.65625 31.550781 101.804688 31.351562 102.101562 31.351562 L 103.355469 31.351562 L 103.355469 28.671875 C 103.355469 28.253906 103.578125 28.128906 103.96875 28.082031 L 105.742188 27.859375 L 105.863281 27.859375 C 106.183594 27.859375 106.332031 28.03125 106.332031 28.402344 L 106.332031 31.351562 L 109.113281 31.351562 C 109.40625 31.351562 109.578125 31.453125 109.578125 31.769531 L 109.578125 32.925781 C 109.578125 33.222656 109.382812 33.394531 109.085938 33.394531 L 106.332031 33.394531 L 106.332031 39.027344 C 106.332031 39.765625 106.382812 40.308594 106.652344 40.699219 C 106.871094 41.019531 107.21875 41.21875 107.808594 41.21875 C 108.421875 41.21875 108.9375 41.070312 109.382812 40.921875 C 109.480469 40.898438 109.554688 40.875 109.628906 40.875 C 109.800781 40.875 109.898438 40.972656 109.949219 41.167969 L 110.195312 42.398438 C 110.21875 42.472656 110.21875 42.496094 110.21875 42.546875 Z M 110.21875 42.546875 "/>
</g>
</svg>
